<mxfile host="app.diagrams.net" modified="2023-09-19T01:08:25.867Z" agent="Mozilla/5.0 (Windows NT 10.0; Win64; x64) AppleWebKit/537.36 (KHTML, like Gecko) Chrome/117.0.0.0 Safari/537.36 Edg/117.0.2045.31" version="21.7.5" etag="Qi5GkURVkPQDs_LY0N_K" type="github">
  <diagram name="第 1 页" id="LyDaZkJ9ImDjVt8rxZ3y">
    <mxGraphModel>
      <root>
        <mxCell id="0" />
        <mxCell id="1" parent="0" />
      </root>
    </mxGraphModel>
  </diagram>
</mxfile>
